    <?xml version="1.0" encoding="utf-8"?>
    <svg version="1.1" class="gryte-logo" xmlns="http://www.w3.org/2000/svg" xmlns:xlink="http://www.w3.org/1999/xlink" x="0px" y="0px"
         viewBox="0 0 44.5 23.4" enable-background="new 0 0 44.5 23.4" xml:space="preserve">
    <g>
        <path d="M4.8,22.1c0-0.2,0.1-0.3,0.2-0.4c0.1-0.1,0.3-0.2,0.4-0.2c0.1,0,0.2,0,0.3,0c0.9,0.4,1.6,0.6,2.3,0.6c1,0,1.9-0.6,2.7-1.7
            c0.8-1.1,1.5-3,2.2-5.8c-0.5,0.5-1.5,1.1-2.8,1.5c-1.4,0.5-2.8,0.7-4.2,0.7c-1.5,0-2.7-0.4-3.7-1.2c-1.2-0.9-1.7-2.5-1.7-4.6
            c0-1.7,0.3-3.3,1-4.8s1.5-2.7,2.5-3.6c1-0.9,2.1-1.6,3.2-2.1C8.2,0,9.4-0.2,10.5-0.2s2.1,0.3,2.9,1c0.8,0.7,1.1,1.6,1.1,2.8
            c0,0.3-0.1,0.6-0.2,0.7c-0.1,0.1-0.3,0.2-0.6,0.2c-0.3,0-0.5-0.1-0.6-0.2C13,4.1,13,3.9,13,3.5c0-0.8-0.2-1.4-0.7-1.8
            c-0.5-0.4-1.2-0.6-2-0.6S8.5,1.3,7.6,1.8C6.6,2.2,5.7,2.8,4.9,3.6C4,4.4,3.3,5.5,2.7,6.8c-0.6,1.3-0.9,2.8-0.9,4.3s0.4,2.8,1.3,3.5
            C4,15.4,5,15.8,6.3,15.8c1.3,0,2.5-0.3,3.8-0.8c1.3-0.5,2.3-1.1,3.1-1.9l0.1-0.6c0,0,0-0.1,0-0.2c0-0.3-0.5-0.4-1.4-0.4
            c-0.5,0-0.8,0-1-0.1c-0.1-0.1-0.2-0.2-0.2-0.4c0-0.4,0.4-0.7,1.1-0.7c1.1,0,1.9,0.1,2.3,0.2c0.4,0.1,0.5,0.4,0.5,0.8
            c0,0.1,0,0.4-0.1,1c-0.7,3.6-1.6,6.2-2.7,8c-1.1,1.7-2.4,2.6-4.1,2.6c-0.5,0-1.2-0.1-1.9-0.3C5.2,22.7,4.8,22.5,4.8,22.1z"/>
        <path d="M18.4,8.9c-0.4,1.4-0.6,2.7-0.7,4c0.3-1,0.8-2.1,1.6-3.3c0.7-1.2,1.4-1.8,1.9-1.8c0.6,0,0.8,0.3,0.8,0.8
            c0,0.3-0.1,0.7-0.2,1.3c-0.1,0.6-0.2,1-0.2,1.2c0,0.5,0.2,0.8,0.5,0.8c0.4,0,0.8-0.3,1.4-0.9c0.1-0.1,0.2-0.1,0.3-0.1
            c0.2,0,0.3,0.1,0.3,0.3c0,0.2-0.1,0.4-0.2,0.5c-0.6,0.8-1.3,1.2-2,1.2c-0.4,0-0.7-0.2-0.9-0.5c-0.2-0.3-0.3-0.7-0.3-1.2
            s0.1-0.9,0.2-1.2C20.9,9.6,21,9.4,21,9.3c0-0.1,0-0.1-0.1-0.1c-0.1,0-0.4,0.3-0.7,0.8c-0.3,0.5-0.7,1.2-1.2,2.2
            c-0.5,0.9-0.9,1.9-1.3,2.9c-0.1,0.2-0.2,0.3-0.2,0.4c-0.1,0.1-0.2,0.1-0.4,0.1c-0.3,0-0.5-0.1-0.5-0.3c-0.1-0.2-0.1-0.5-0.1-1v-0.2
            c0-1.7,0.3-3.5,0.9-5.3c0.1-0.3,0.2-0.6,0.3-0.7c0.1-0.1,0.2-0.2,0.4-0.2s0.3,0,0.4,0.1c0.1,0.1,0.1,0.2,0.1,0.3
            C18.6,8.4,18.5,8.6,18.4,8.9z"/>
        <path d="M22,21.4c0-0.8,0.5-1.7,1.5-2.9c0.5-0.6,1-1.1,1.6-1.5c0.2-0.2,0.6-0.4,1-0.7c0.4-0.3,0.7-0.5,0.9-0.7l0.6-2
            c-0.2,0.4-0.5,0.8-0.9,1.2c-0.5,0.4-1,0.6-1.6,0.6s-1-0.2-1.3-0.7c-0.3-0.5-0.4-1-0.4-1.6c0-1.6,0.4-3.2,1.3-4.8
            c0.2-0.4,0.5-0.6,0.9-0.6c0,0,0.1,0,0.2,0.1c0.1,0.1,0.1,0.2,0.1,0.3s-0.2,0.8-0.6,2s-0.6,2.1-0.6,2.7c0,1,0.3,1.5,0.9,1.5
            c0.5,0,1-0.3,1.5-0.9s0.7-1.2,0.9-1.7l0.7-2.9c0.2-0.6,0.5-0.9,1.1-0.9C29.9,7.9,30,8,30,8.1c0,0.4-0.1,1.1-0.4,2.2
            c-0.2,0.6-0.3,1.2-0.4,1.8c-0.1,0.6-0.3,1.5-0.5,2.6c1.5-1.2,2.6-1.9,3.1-2h0.1c0.1,0,0.3,0.1,0.3,0.2c0.1,0.1,0.1,0.3,0.1,0.5
            c0,0.2-0.1,0.3-0.3,0.3c-1,0.4-2.2,1.1-3.6,2.3c-0.3,1.4-0.6,2.6-1,3.7c-0.2,0.7-0.5,1.3-0.8,1.7c-0.3,0.4-0.7,0.8-1.2,1.1
            s-1,0.5-1.6,0.5c-0.6,0-1-0.2-1.3-0.5C22.2,22.3,22,21.9,22,21.4z M24,22.1c0.8,0,1.4-0.5,1.9-1.6c0.2-0.5,0.4-0.9,0.5-1.3
            c0.1-0.4,0.2-0.9,0.4-1.4C26.9,17.3,27,17,27,17c-1.2,0.8-2.2,1.6-2.9,2.3s-1,1.4-1,1.9C23.1,21.8,23.4,22.1,24,22.1z"/>
        <path d="M30.6,11.5c-0.2,0-0.3-0.1-0.3-0.4c0-0.1,0.1-0.2,0.2-0.3c0.4-0.2,0.9-0.4,1.3-0.5c0.5-3.2,1.3-5.7,2.4-7.5
            c0.7-1.1,1.5-1.6,2.4-1.6h0c0.3,0,0.6,0.1,0.8,0.3c0.2,0.2,0.3,0.5,0.3,0.9v0.1c-0.2,2-1.6,4.4-4.2,7.2c1.1-0.3,2-0.5,2.7-0.6h0.1
            c0.2,0,0.3,0.1,0.3,0.4c0,0.2-0.1,0.4-0.3,0.4c-0.7,0.1-1.8,0.3-3.2,0.7C33,11.3,33,11.8,33,12.2c0,1.7,0.5,2.6,1.6,2.6
            c0.8,0,1.8-0.6,2.7-1.8c0.1-0.1,0.2-0.1,0.3-0.1c0.1,0,0.2,0,0.3,0.1c0.1,0.1,0.1,0.2,0.1,0.3c0,0.1-0.1,0.3-0.2,0.4
            c-1.1,1.4-2.3,2.1-3.5,2.1c-1.8,0-2.6-1.3-2.6-3.8c0-0.3,0-0.6,0-0.9L30.6,11.5z M36.3,2.4c-0.8,0-1.6,1.1-2.3,3.3
            c-0.4,1.1-0.7,2.3-0.9,3.4c0.1-0.1,0.4-0.6,1.1-1.4c0.7-0.8,1.2-1.6,1.5-2.3c0.4-0.7,0.6-1.2,0.7-1.7c0.1-0.4,0.1-0.8,0.1-1
            C36.5,2.5,36.5,2.4,36.3,2.4z"/>
        <path d="M36.7,12.4c0-1.3,0.3-2.3,1-3.3c0.7-0.9,1.6-1.4,2.6-1.4c0.6,0,1.1,0.2,1.5,0.5c0.4,0.3,0.6,0.8,0.6,1.3
            c0,0.8-0.4,1.6-1.2,2.2s-1.9,1-3.3,1.2c0.1,0.6,0.3,1,0.7,1.3c0.4,0.3,0.8,0.4,1.4,0.4c1.3,0,2.6-0.7,4-2c0,0,0.1,0,0.1,0
            s0.1,0,0.2,0.1c0.1,0.1,0.1,0.2,0.1,0.3c0,0.1,0,0.2-0.1,0.3c-0.4,0.5-1,1.1-1.9,1.5c-0.9,0.5-1.7,0.7-2.7,0.7s-1.7-0.3-2.2-0.9
            S36.7,13.4,36.7,12.4z M40.5,8.8c-0.7,0-1.3,0.4-1.8,1.1c-0.5,0.7-0.8,1.5-0.8,2.2c0.7-0.1,1.5-0.3,2.3-0.8c0.8-0.5,1.2-1,1.2-1.6
            c0-0.3-0.1-0.5-0.3-0.7C40.9,8.9,40.7,8.8,40.5,8.8z"/></g></svg>
